<svg width="16" height="16" viewBox="0 0 16 16" fill="none" xmlns="http://www.w3.org/2000/svg">
<path fill-rule="evenodd" clip-rule="evenodd" d="M1 2.5C1 1.67157 1.67157 1 2.5 1H13.8964C14.5646 1 14.8993 1.80786 14.4268 2.28033L6.70711 10H10V8H11V10.5C11 10.7761 10.7761 11 10.5 11H5.70711L4.70711 12H12V6H13V12C13 12.5523 12.5523 13 12 13H3.70711L2.70711 14H13.5C13.7761 14 14 13.7761 14 13.5V4.5H15V13.5C15 14.3284 14.3284 15 13.5 15H2.10355C1.43537 15 1.10075 14.1921 1.57322 13.7197L9.29289 6H6V8H5V5.5C5 5.22386 5.22386 5 5.5 5H10.2929L11.2929 4H4V10H3V4C3 3.44772 3.44772 3 4 3H12.2929L13.2929 2H2.5C2.22386 2 2 2.22386 2 2.5V11.5H1V2.5Z" fill="url(#paint0_angular_1_173)"/>
<defs>
<radialGradient id="paint0_angular_1_173" cx="0" cy="0" r="1" gradientUnits="userSpaceOnUse" gradientTransform="translate(8.21875 8.4375) rotate(-45) scale(9.59014)">
<stop stop-color="white" stop-opacity="0"/>
<stop offset="0.0416667" stop-color="white" stop-opacity="0"/>
<stop offset="0.265625" stop-color="white" stop-opacity="0.65"/>
<stop offset="0.5" stop-color="white"/>
<stop offset="1" stop-color="white"/>
</radialGradient>
</defs>
</svg>
